<?xml version="1.0" encoding="UTF-8"?>
<svg width="100pt" height="100pt" version="1.1" viewBox="0 0 100 100" xmlns="http://www.w3.org/2000/svg">
 <g>
  <path d="m17.09 34.406h14.461l5.1758-10.312h26.23l5.1758 10.312h14.461v10.043h-4.5469c-0.25391 0-0.48828 0.125-0.62891 0.33203l-0.88672 1.3008c-0.1875 0.27344-0.17578 0.63281 0.027344 0.89453l2.8711 3.6992 5.5781 7.1875c0.14453 0.1875 0.36328 0.29297 0.60156 0.29297h1.7695c0.23438 0 0.45703-0.10938 0.60156-0.29297l5.5781-7.1875 2.8711-3.6992c0.20312-0.26172 0.21484-0.62109 0.027343-0.89453l-0.88672-1.3008c-0.14062-0.20703-0.37891-0.33203-0.62891-0.33203h-4.5469v-10.543c0-4.0312-3.2773-7.3125-7.3125-7.3125l-10.137 0.003906-5.1758-10.312-35.867-0.003906-5.1758 10.312-10.137 0.003906c-4.0312 0-7.3125 3.2773-7.3125 7.3125v12.648h7.8086z"/>
  <path d="m82.59 75.906h-65.5v-10.043h4.8711c0.25391 0 0.48828-0.125 0.62891-0.33203l0.88672-1.3008c0.1875-0.27344 0.17578-0.63281-0.027343-0.89453l-4.5664-5.8828-3.8828-5.0039c-0.14453-0.1875-0.36328-0.29297-0.60156-0.29297h-1.7695c-0.23438 0-0.45703 0.10938-0.60156 0.29297l-3.8867 5.0039-4.5664 5.8828c-0.20312 0.26172-0.21484 0.62109-0.027344 0.89453l0.88672 1.3008c0.14062 0.20703 0.37891 0.33203 0.62891 0.33203h4.2227v10.535c0 4.0312 3.2773 7.3125 7.3125 7.3125h66.496c4.0312 0 7.3125-3.2812 7.3125-7.3125l-0.007812-12.746h-7.8086z"/>
  <path d="m49.84 31.465c-11.664 0-21.156 9.4883-21.156 21.152 0 11.664 9.4883 21.152 21.156 21.152 11.664 0 21.152-9.4883 21.152-21.152-0.003907-11.664-9.4883-21.152-21.152-21.152zm0 34.5c-7.3594 0-13.348-5.9883-13.348-13.344 0-7.3594 5.9883-13.348 13.348-13.348 7.3555 0 13.344 5.9883 13.344 13.348 0 7.3555-5.9883 13.344-13.344 13.344z"/>
 </g>
</svg>
